<svg id="Filledoutline" height="512" viewBox="0 0 512 512" width="512" xmlns="http://www.w3.org/2000/svg"><path d="m45.826 388.382h123.585v32h-123.585z" fill="#b3b1b3" transform="matrix(.707 -.707 .707 .707 -254.421 194.538)"/><path d="m161.19 319.245-47.915 34.225 45.255 45.255 34.345-48.083z" fill="#808080"/><path d="m480 48a15.905 15.905 0 0 1 -4.69 11.31l-187.16 187.17-96.15 96.15-22.63-22.63 96.15-96.15 187.17-187.16a16 16 0 0 1 27.31 11.31z" fill="#f7ce2c"/><path d="m149.157 314.843h64v32h-64z" fill="#4e4e4f" transform="matrix(.707 .707 -.707 .707 287.001 -31.196)"/><path d="m62.363 483.578 39.598-28.284-45.255-45.255-28.284 39.598z" fill="#808080"/><path d="m222.213 241.788h63.993v32.004h-63.993z" fill="#e5be20" transform="matrix(.707 -.707 .707 .707 -107.829 255.259)"/><path d="m388.378 321.009h32v173.892h-32z" fill="#808080" transform="matrix(.707 -.707 .707 .707 -170.029 405.426)"/><path d="m418.579 394.392h32v87.529h-32z" fill="#4e4e4f" transform="matrix(.707 -.707 .707 .707 -182.538 435.627)"/><path d="m313.123 339.328-277.186-277.186a16 16 0 0 1 0-22.627 16 16 0 0 1 22.627 0l288.5 288.5z" fill="#ed5749"/><path d="m375.348 344.985-33.941 33.941-39.598-39.598 50.912-16.971z" fill="#4e4e4f"/><path d="m403.633 373.269 11.313-11.313-11.313-11.314-11.314 11.313-11.314-11.314a8 8 0 0 0 0-11.314l-22.628-22.627a8 8 0 0 0 -8.186-1.932l-3.795 1.265-58.243-58.243 192.8-192.813a23.995 23.995 0 1 0 -33.924-33.943l-192.809 192.822-190-190a24 24 0 0 0 -33.94 33.944l189.993 189.993-39.112 39.107-5.661-5.661a8 8 0 0 0 -11.313 0l-22.627 22.633a8 8 0 0 0 -.912 10.214l-32.023 22.874a8 8 0 0 0 -1.007 12.167l5.657 5.657-11.313 11.316-11.315-11.317-11.313 11.317 11.314 11.313-22.628 22.626-5.657-5.657a8 8 0 0 0 -12.163 1.007l-28.284 39.6a8 8 0 0 0 .853 10.308l33.941 33.941a8 8 0 0 0 10.306.853l39.6-28.284a8 8 0 0 0 1.007-12.167l-5.657-5.657 22.628-22.628 11.306 11.311 11.314-11.314-11.314-11.313 11.313-11.314 5.657 5.657a8 8 0 0 0 5.656 2.343q.33 0 .66-.028a8 8 0 0 0 5.851-3.322l22.873-32.023a7.987 7.987 0 0 0 10.215-.911l22.627-22.628a8 8 0 0 0 0-11.314l-5.66-5.66 39.112-39.112 41.955 41.955a7.967 7.967 0 0 0 -.01 11.3l39.6 39.6a8 8 0 0 0 11.314 0l101.824 101.824a8 8 0 0 0 11.314 0l22.627-22.627a8 8 0 0 0 0-11.314zm0 22.628-11.314 11.313-11.314-11.31 11.314-11.314zm-33.941-11.314-11.313-11.314 11.313-11.314 11.314 11.314zm88.66-342.24a7.995 7.995 0 1 1 11.3 11.31l-192.812 192.823-11.307-11.306zm-419.102 8.485a8 8 0 0 1 13.658-5.656l276.517 276.518-16.97 5.656-270.861-270.86a7.949 7.949 0 0 1 -2.344-5.658zm112.758 284.807 6.521 6.521-22.629 22.627-10.291-10.293zm-94.28 86.739 10.292 10.293-22.628 22.627-6.521-6.522zm5.5 50.755-6.521-6.521 22.627-22.628 10.293 10.293zm27.419-40.463-11.313-11.313 22.628-22.628 11.313 11.313zm33.942-33.941-11.313-11.314 11.313-11.311 11.311 11.311zm32.92-12.335-10.293-10.29 22.627-22.627 6.522 6.522zm34.962-32.919-33.941-33.942 11.314-11.314 33.941 33.941zm11.31-33.946-11.306-11.306 39.112-39.112 11.306 11.306zm112.838 23.3 33.941-11.313 13.475 13.473-22.628 22.628zm137.925 126.611-50.911-50.912 11.313-11.313 50.911 50.911z"/><path d="m88 248h96v16h-96z"/><path d="m132 194.459h16v43.081h-16z" transform="matrix(.371 -.928 .928 .371 -112.546 265.763)"/><path d="m119.384 292.8h17.233v16h-17.233z" transform="matrix(.928 -.371 .371 .928 -102.564 69.057)"/><path d="m376 292.183h16v17.233h-16z" transform="matrix(.371 -.928 .928 .371 -37.902 545.616)"/><path d="m328 248h96v16h-96z"/><path d="m350.459 208h43.081v16h-43.081z" transform="matrix(.928 -.371 .371 .928 -53.614 153.606)"/><path d="m248 88h16v96h-16z"/><path d="m274.459 132h43.081v16h-43.081z" transform="matrix(.371 -.928 .928 .371 56.092 362.845)"/><path d="m208 118.459h16v43.081h-16z" transform="matrix(.928 -.371 .371 .928 -36.546 90.234)"/><path d="m248 328h16v96h-16z"/><path d="m292.8 375.384h16v17.232h-16z" transform="matrix(.928 -.371 .371 .928 -121.099 139.177)"/><path d="m202.584 376h17.232v16h-17.232z" transform="matrix(.371 -.928 .928 .371 -223.77 437.5)"/></svg>